<svg width="51" height="27" viewBox="0 0 51 27" fill="none" xmlns="http://www.w3.org/2000/svg">
<path fill-rule="evenodd" clip-rule="evenodd" d="M11.6481 25.4117H32.713C32.8321 25.4117 32.9483 25.3988 33.0602 25.3744C33.172 25.3988 33.2882 25.4117 33.4074 25.4117H45.4444C46.3393 25.4117 47.0648 24.6862 47.0648 23.7913C47.0648 22.8964 46.3393 22.171 45.4444 22.171H44.0556C43.1606 22.171 42.4352 21.4455 42.4352 20.5506C42.4352 19.6557 43.1606 18.9302 44.0556 18.9302H48.4537C49.3486 18.9302 50.0741 18.2048 50.0741 17.3099C50.0741 16.415 49.3486 15.6895 48.4537 15.6895H43.3611C44.256 15.6895 44.9815 14.964 44.9815 14.0691C44.9815 13.1742 44.256 12.4487 43.3611 12.4487H28.5463C29.4412 12.4487 30.1667 11.7233 30.1667 10.8284C30.1667 9.93347 29.4412 9.20801 28.5463 9.20801H15.3519C14.4569 9.20801 13.7315 9.93347 13.7315 10.8284C13.7315 11.7233 14.4569 12.4487 15.3519 12.4487H6.09259C5.19769 12.4487 4.47222 13.1742 4.47222 14.0691C4.47222 14.964 5.19769 15.6895 6.09259 15.6895H11.8796C12.7745 15.6895 13.5 16.415 13.5 17.3099C13.5 18.2048 12.7745 18.9302 11.8796 18.9302H2.62037C1.72546 18.9302 1 19.6557 1 20.5506C1 21.4455 1.72546 22.171 2.62037 22.171H11.6481C10.7532 22.171 10.0278 22.8964 10.0278 23.7913C10.0278 24.6862 10.7532 25.4117 11.6481 25.4117ZM49.3796 25.4118C50.2745 25.4118 51 24.6863 51 23.7914C51 22.8965 50.2745 22.171 49.3796 22.171C48.4847 22.171 47.7592 22.8965 47.7592 23.7914C47.7592 24.6863 48.4847 25.4118 49.3796 25.4118Z" fill="#292929"/>
<path fill-rule="evenodd" clip-rule="evenodd" d="M13.5721 10.1861L32.3739 7.00912C32.7444 6.94652 33.0928 7.21277 33.1521 7.60381C33.1522 7.60459 33.1523 7.60537 33.1525 7.60615L34.9917 19.9949C35.0497 20.3852 34.7975 20.7515 34.4279 20.8139L15.6261 23.9909C15.2556 24.0535 14.9072 23.7872 14.8479 23.3962C14.8478 23.3954 14.8477 23.3946 14.8475 23.3938L13.0083 11.0051C12.9503 10.6148 13.2025 10.2485 13.5721 10.1861Z" fill="#292929"/>
<path d="M16.41 23.8619L15.7026 23.9876C15.2166 24.0738 14.7603 23.7021 14.6833 23.1573L13.0111 11.3192C12.9341 10.7744 13.2657 10.2628 13.7516 10.1765L31.5685 7.01244C32.0544 6.92616 32.5108 7.29788 32.5877 7.84271C32.6627 8.37356 32.7225 8.79663 32.767 9.1119M32.894 10.0111C32.9344 10.2967 32.9697 10.5468 33 10.7613" stroke="#54FF6F" stroke-linecap="round"/>
<path fill-rule="evenodd" clip-rule="evenodd" d="M13.5979 11.6102L31.4496 9.008C31.8342 8.95194 32.1949 9.19659 32.2566 9.55529L33.9909 19.6332C34.0529 19.993 33.7906 20.3315 33.4051 20.3893C33.4041 20.3895 33.4031 20.3896 33.4021 20.3898L15.5504 22.992C15.1658 23.0481 14.8051 22.8034 14.7434 22.4447L13.0091 12.3668C12.9471 12.007 13.2094 11.6685 13.5949 11.6107C13.5959 11.6105 13.5969 11.6104 13.5979 11.6102Z" fill="#191919"/>
<path d="M36.0751 12H17.9249C17.4141 12 17 12.4438 17 12.9912V25.0088C17 25.5562 17.4141 26 17.9249 26H36.0751C36.5859 26 37 25.5562 37 25.0088V12.9912C37 12.4438 36.5859 12 36.0751 12Z" fill="#292929" stroke="#54FF6F"/>
<path d="M37 15H18V18H37V15Z" fill="#292929"/>
<path d="M20.2903 15H18.5939M37 15H21.4789H37ZM35.5856 18.25H17H35.5856ZM25.4232 23H18.7499H25.4232Z" stroke="#54FF6F" stroke-linecap="round" stroke-linejoin="round"/>
<path fill-rule="evenodd" clip-rule="evenodd" d="M5.06258 0H0.281743V0.950884H3.66266L0 5.38834V6.2864H5.15062V5.33552H1.39991L5.06258 0.836426V0ZM10.4301 6.11678H6.95316V6.80834H9.41201L6.74826 10.0356V10.6887H10.4942V9.99716H7.76638L10.4301 6.72509V6.11678Z" fill="#54FF6F"/>
</svg>
