<svg width="24" height="24" viewBox="0 0 24 24" fill="none" xmlns="http://www.w3.org/2000/svg">
<path fill-rule="evenodd" clip-rule="evenodd" d="M12 24C18.6274 24 24 18.6274 24 12C24 5.37258 18.6274 0 12 0C5.37258 0 0 5.37258 0 12C0 18.6274 5.37258 24 12 24ZM12 21.898C6.53347 21.898 2.10197 17.4665 2.10197 12C2.10197 6.53347 6.53347 2.10197 12 2.10197C17.4665 2.10197 21.898 6.53347 21.898 12C21.898 17.4665 17.4665 21.898 12 21.898ZM5.31696 15.2492H7.86466L11.1325 9.9922C11.2173 9.8559 11.3342 9.74255 11.4731 9.66214C11.7762 9.48666 12.15 9.48666 12.4531 9.66214C12.592 9.74255 12.709 9.8559 12.7937 9.9922L16.0616 15.2492H18.757L14.9914 9.10194C14.6286 8.50976 14.1116 8.02744 13.4957 7.70665L13.2869 7.5979C12.8781 7.385 12.424 7.27384 11.9631 7.27384C11.5036 7.27384 11.0523 7.3955 10.6551 7.62645L10.4385 7.75237C9.93651 8.04423 9.51422 8.45536 9.20903 8.94936L5.31696 15.2492Z" fill="#11FF37"/>
</svg>
