<svg width="72" height="72" viewBox="0 0 72 72" fill="none" xmlns="http://www.w3.org/2000/svg">
<path fill-rule="evenodd" clip-rule="evenodd" d="M36 72C55.8823 72 72 55.8823 72 36C72 16.1177 55.8823 0 36 0C16.1177 0 0 16.1177 0 36C0 55.8823 16.1177 72 36 72ZM36 65.6941C19.6004 65.6941 6.3059 52.3996 6.3059 36C6.3059 19.6004 19.6004 6.3059 36 6.3059C52.3996 6.3059 65.6941 19.6004 65.6941 36C65.6941 52.3996 52.3996 65.6941 36 65.6941ZM15.9508 45.7477H23.5939L33.3975 29.9766C33.6517 29.5678 34.0026 29.2277 34.4193 28.9865C35.3286 28.46 36.45 28.46 37.3593 28.9865C37.7759 29.2277 38.1268 29.5678 38.381 29.9766L48.1847 45.7477H56.2708L44.974 27.3059C43.8857 25.5293 42.3346 24.0824 40.4869 23.12L39.8605 22.7938C38.6342 22.1551 37.2719 21.8216 35.8893 21.8216C34.5108 21.8216 33.1569 22.1865 31.9652 22.8794L31.3154 23.2572C29.8094 24.1327 28.5426 25.3661 27.627 26.8481L15.9508 45.7477Z" fill="white"/>
</svg>
