<svg width="18" height="19" viewBox="0 0 18 19" fill="none" xmlns="http://www.w3.org/2000/svg">
<path d="M8.99999 0V1.53846C4.34999 1.53846 0.538452 5.35 0.538452 10C0.538452 14.65 4.34999 18.4615 8.99999 18.4615C13.65 18.4615 17.4615 14.65 17.4615 10C17.4615 7.73308 16.6077 5.68462 15.0815 4.15846L14 5.24077C15.2438 6.48308 15.9231 8.11231 15.9231 10C15.9231 13.8115 12.8115 16.9231 8.99999 16.9231C5.18845 16.9231 2.07691 13.8115 2.07691 10C2.07691 6.18846 5.18845 3.07692 8.99999 3.07692V4.61538L12.8461 2.30769L8.99999 0ZM10.6108 5.04846L8.68768 8.89462C8.44528 8.9605 8.2314 9.10456 8.07924 9.30443C7.92708 9.5043 7.84514 9.7488 7.84614 10C7.84614 10.306 7.96771 10.5995 8.1841 10.8159C8.40049 11.0323 8.69397 11.1538 8.99999 11.1538H9.04845L11.5238 13.63L12.63 12.5238L10.1538 10.0485V10C10.1538 9.84846 10.1108 9.7 10.0577 9.56692L12.0046 5.72077L10.6108 5.04769V5.04846Z" fill="white"/>
</svg>
