<svg width="18" height="20" viewBox="0 0 18 20" fill="none" xmlns="http://www.w3.org/2000/svg">
<path d="M6.63105 17.3095V14.7539C6.63104 14.1039 7.16097 13.5757 7.81755 13.5713H10.2226C10.8823 13.5713 11.4171 14.1008 11.4171 14.7539V14.7539V17.3174C11.417 17.8693 11.8619 18.3204 12.4192 18.3333H14.0226C15.621 18.3333 16.9167 17.0506 16.9167 15.4682V15.4682V8.19819C16.9082 7.57568 16.6129 6.99111 16.115 6.61085L10.6315 2.23774C9.67082 1.4763 8.30521 1.4763 7.34456 2.23774L1.88506 6.61879C1.38526 6.99751 1.08953 7.58305 1.08337 8.20612V15.4682C1.08337 17.0506 2.3791 18.3333 3.97747 18.3333H5.58084C6.152 18.3333 6.61502 17.8749 6.61502 17.3095V17.3095" stroke="white" stroke-width="1.5" stroke-linecap="round" stroke-linejoin="round"/>
</svg>
