<svg width="18" height="16" viewBox="0 0 18 16" fill="none" xmlns="http://www.w3.org/2000/svg">
<path d="M13.4583 3.41667V10.8833C13.4583 11.55 13.1916 12.1833 12.7249 12.65C12.2583 13.1167 11.6166 13.3833 10.9583 13.3833H7.04993C6.38326 13.3833 5.74993 13.1167 5.28326 12.65C4.8166 12.1833 4.54993 11.5417 4.54993 10.8833V3.41667C4.54993 3.09167 4.60829 2.76667 4.74163 2.45834C4.86663 2.15834 5.04993 1.875 5.28326 1.65C5.5166 1.41667 5.79162 1.23334 6.09162 1.10834C6.39162 0.983343 6.72493 0.916667 7.04993 0.916667H10.9583C11.6249 0.916667 12.2583 1.18334 12.7249 1.65C13.1916 2.11667 13.4583 2.75 13.4583 3.41667Z" stroke="white" stroke-width="1.5" stroke-miterlimit="10" stroke-linecap="round"/>
<path d="M8.06665 13.5L8.99164 13.8667L11.7 14.9C12.0083 15.0167 12.3333 15.075 12.6583 15.0667C12.9833 15.0667 13.3083 14.9833 13.6083 14.85C13.9083 14.7167 14.175 14.525 14.4083 14.2833C14.6333 14.0417 14.8083 13.7667 14.925 13.4583L16.325 9.81666C16.5666 9.19999 16.55 8.51668 16.2916 7.90835C16.025 7.30001 15.5333 6.82499 14.925 6.58332L13.4833 6.03335" stroke="white" stroke-width="1.5" stroke-miterlimit="10" stroke-linecap="round"/>
<path d="M9.93341 13.5167L9.00842 13.8833L6.29174 14.9167C5.98341 15.0333 5.65839 15.0917 5.33339 15.0833C5.00839 15.0833 4.68343 15 4.38343 14.8667C4.08343 14.7333 3.81674 14.5417 3.58341 14.3C3.35841 14.0583 3.18341 13.7833 3.06675 13.475L1.66675 9.83334C1.43342 9.21668 1.45008 8.525 1.71675 7.925C1.98342 7.31667 2.48339 6.84999 3.10006 6.60832L4.51674 6.06666" stroke="white" stroke-width="1.5" stroke-miterlimit="10" stroke-linecap="round"/>
</svg>
