<svg width="18" height="18" viewBox="0 0 18 18" fill="none" xmlns="http://www.w3.org/2000/svg">
<path d="M8.99601 12.8973V10.7832" stroke="white" stroke-width="1.5" stroke-linecap="round" stroke-linejoin="round"/>
<path fill-rule="evenodd" clip-rule="evenodd" d="M14.1583 3.44183C15.5666 3.44183 16.7 4.5835 16.7 5.99183V8.8585C14.65 10.0585 11.9416 10.7835 8.99163 10.7835C6.04163 10.7835 3.34163 10.0585 1.29163 8.8585V5.9835C1.29163 4.57517 2.43329 3.44183 3.84163 3.44183H14.1583Z" stroke="white" stroke-width="1.5" stroke-linecap="round" stroke-linejoin="round"/>
<path d="M11.9127 3.43817V3.13317C11.9127 2.1165 11.0877 1.2915 10.071 1.2915H7.92101C6.90435 1.2915 6.07935 2.1165 6.07935 3.13317V3.43817" stroke="white" stroke-width="1.5" stroke-linecap="round" stroke-linejoin="round"/>
<path d="M1.31201 11.9025L1.46951 13.9933C1.57618 15.4025 2.75035 16.4917 4.16285 16.4917H13.8287C15.2412 16.4917 16.4153 15.4025 16.522 13.9933L16.6795 11.9025" stroke="white" stroke-width="1.5" stroke-linecap="round" stroke-linejoin="round"/>
</svg>
