<svg width="18" height="18" viewBox="0 0 18 18" fill="none" xmlns="http://www.w3.org/2000/svg">
<path d="M8.67851 4.29454L8.67854 4.29451C12.5504 0.421985 15.9453 1.13257 16.7739 1.38366C17.0248 2.21227 17.7349 5.60725 13.8631 9.4791L13.8628 9.47934C12.3259 11.0183 10.4808 12.2147 8.44859 12.9898C8.00584 13.1544 7.53231 13.047 7.21502 12.724L7.21504 12.7239L7.21101 12.7199L5.43818 10.9554C5.11462 10.6246 5.0062 10.1484 5.16633 9.71306C5.85739 7.99931 6.91616 6.0569 8.67851 4.29454ZM13.9891 4.17305L13.9891 4.17305L13.9868 4.17077C13.1416 3.3255 11.7667 3.3255 10.9214 4.17077C10.0761 5.01603 10.0761 6.39094 10.9214 7.23621C11.7667 8.08147 13.1416 8.08147 13.9868 7.23621C14.835 6.38808 14.8202 5.01488 13.9891 4.17305ZM10.1148 16.249L9.40723 14.5865C9.40718 14.5863 9.40714 14.5862 9.4071 14.5862C9.40718 14.5857 9.40738 14.5847 9.40798 14.5833C9.40891 14.5811 9.41038 14.5789 9.41225 14.577C9.41388 14.5754 9.41604 14.5738 9.41947 14.5724C10.0129 14.3307 10.588 14.0565 11.1443 13.7554C11.15 13.7523 11.1532 13.7517 11.1546 13.7514C11.1563 13.7512 11.1592 13.7509 11.1638 13.7517C11.1745 13.7534 11.1914 13.76 11.2075 13.7742C11.2196 13.7849 11.2251 13.7944 11.2273 13.7991C11.2272 13.7993 11.2271 13.7995 11.2271 13.7996L10.1148 16.249ZM3.58521 8.73814C3.58381 8.74157 3.5822 8.74374 3.58058 8.74537C3.57872 8.74723 3.57649 8.74871 3.57431 8.74964C3.57291 8.75023 3.57193 8.75044 3.57145 8.75051C3.57137 8.75048 3.57127 8.75044 3.57116 8.75039L1.90859 8.04282L4.35796 6.93056C4.35815 6.93048 4.35833 6.9304 4.3585 6.93032C4.36321 6.9325 4.37268 6.93801 4.38339 6.95014C4.3976 6.96625 4.4042 6.98312 4.40593 6.99378C4.40667 6.99841 4.40646 7.00131 4.40618 7.003C4.40596 7.00439 4.40531 7.00762 4.40222 7.01334C4.10109 7.56957 3.82689 8.14476 3.58521 8.73814ZM1.79316 16.8327H1.32496L1.32496 16.3648L4.79287 12.8968L5.26623 13.3669L1.79316 16.8327Z" stroke="white" stroke-linecap="round"/>
</svg>
