<svg width="16" height="16" viewBox="0 0 16 16" fill="none" xmlns="http://www.w3.org/2000/svg">
<path d="M7.99988 16.0003C3.58138 16.0003 -0.00012207 12.4188 -0.00012207 8.00033C-0.00012207 3.58183 3.58138 0.000328064 7.99988 0.000328064C12.4184 0.000328064 15.9999 3.58183 15.9999 8.00033C15.9999 12.4188 12.4184 16.0003 7.99988 16.0003ZM8.28288 2.50033C8.37338 3.23633 8.41288 3.98333 8.47538 4.71933C8.51138 4.94183 8.53038 5.16733 8.53188 5.39283L10.4454 7.30033C9.60738 8.50033 8.74688 9.69483 7.90938 10.9003C7.99438 11.8628 8.06788 12.8253 8.16438 13.7873L13.9494 5.59083H11.3794C10.3494 4.56083 9.32438 3.52483 8.28838 2.50033H8.28288ZM2.00538 10.7303H1.99988V10.7533C2.85988 10.7363 3.72088 10.7533 4.58088 10.7418L7.65438 13.8213H7.66588C7.56988 12.8533 7.49588 11.8793 7.41088 10.9173C6.77138 10.2888 6.14338 9.64933 5.51488 9.02133C6.35838 7.82133 7.20738 6.63233 8.05088 5.42633L7.80738 2.52883C5.87138 5.26283 3.94738 8.00233 2.00538 10.7303Z" fill="white"/>
</svg>
