<svg width="21" height="18" viewBox="0 0 21 18" fill="none" xmlns="http://www.w3.org/2000/svg">
<path d="M20.5 7.97001V10.03C20.5 10.58 20.06 11.03 19.5 11.05H17.54C16.46 11.05 15.47 10.26 15.38 9.18001C15.32 8.55001 15.56 7.96001 15.98 7.55001C16.35 7.17001 16.86 6.95001 17.42 6.95001H19.5C20.06 6.97001 20.5 7.42001 20.5 7.97001Z" fill="black"/>
<path d="M18.97 12.55H17.54C15.64 12.55 14.04 11.12 13.88 9.3C13.79 8.26 14.17 7.22 14.93 6.48C15.57 5.82 16.46 5.45 17.42 5.45H18.97C19.26 5.45 19.5 5.21 19.47 4.92C19.25 2.49 17.64 0.83 15.25 0.55C15.01 0.51 14.76 0.5 14.5 0.5H5.5C5.22 0.5 4.95 0.52 4.69 0.56C2.14 0.88 0.5 2.78 0.5 5.5V12.5C0.5 15.26 2.74 17.5 5.5 17.5H14.5C17.3 17.5 19.23 15.75 19.47 13.08C19.5 12.79 19.26 12.55 18.97 12.55ZM11.5 6.75H5.5C5.09 6.75 4.75 6.41 4.75 6C4.75 5.59 5.09 5.25 5.5 5.25H11.5C11.91 5.25 12.25 5.59 12.25 6C12.25 6.41 11.91 6.75 11.5 6.75Z" fill="black"/>
</svg>
