<svg width="598" height="215" viewBox="0 0 598 215" fill="none" xmlns="http://www.w3.org/2000/svg">
<path d="M8 12C8 11.4477 8.44772 11 9 11V11C9.55228 11 10 11.4477 10 12V41H8V12Z" fill="#11FF37"/>
<rect y="41" width="18" height="40" rx="5" fill="#11FF37"/>
<path d="M10 110C10 110.552 9.55228 111 9 111V111C8.44772 111 8 110.552 8 110L8 81L10 81L10 110Z" fill="#11FF37"/>
<path d="M124 12C124 11.4477 124.448 11 125 11V11C125.552 11 126 11.4477 126 12V41H124V12Z" fill="#11FF37"/>
<rect x="116" y="41" width="18" height="36" rx="5" fill="#11FF37"/>
<path d="M126 106C126 106.552 125.552 107 125 107V107C124.448 107 124 106.552 124 106L124 77L126 77L126 106Z" fill="#11FF37"/>
<path d="M472 8C472 7.44772 472.448 7 473 7V7C473.552 7 474 7.44772 474 8V37H472V8Z" fill="#11FF37"/>
<rect x="464" y="37" width="18" height="63" rx="5" fill="#11FF37"/>
<path d="M474 129C474 129.552 473.552 130 473 130V130C472.448 130 472 129.552 472 129L472 100L474 100L474 129Z" fill="#11FF37"/>
<path d="M298 12C298 11.4477 298.448 11 299 11V11C299.552 11 300 11.4477 300 12V41H298V12Z" fill="#11FF37"/>
<rect x="290" y="41" width="18" height="70" rx="5" fill="#11FF37"/>
<path d="M300 140C300 140.552 299.552 141 299 141V141C298.448 141 298 140.552 298 140L298 111L300 111L300 140Z" fill="#11FF37"/>
<path d="M66 12C66 11.4477 66.4477 11 67 11V11C67.5523 11 68 11.4477 68 12V41H66V12Z" fill="#11FF37"/>
<rect x="58" y="41" width="18" height="70" rx="5" fill="#11FF37"/>
<path d="M68 140C68 140.552 67.5523 141 67 141V141C66.4477 141 66 140.552 66 140L66 111L68 111L68 140Z" fill="#11FF37"/>
<path d="M95 39C95 38.4477 95.4477 38 96 38V38C96.5523 38 97 38.4477 97 39V68H95V39Z" fill="#11FF37"/>
<rect x="87" y="68" width="18" height="53" rx="5" fill="#11FF37"/>
<path d="M97 150C97 150.552 96.5523 151 96 151V151C95.4477 151 95 150.552 95 150L95 121L97 121L97 150Z" fill="#11FF37"/>
<path d="M588 51C588 50.4477 588.448 50 589 50V50C589.552 50 590 50.4477 590 51V80H588V51Z" fill="#11FF37"/>
<rect x="580" y="80" width="18" height="60" rx="5" fill="#11FF37"/>
<path d="M590 169C590 169.552 589.552 170 589 170V170C588.448 170 588 169.552 588 169L588 140L590 140L590 169Z" fill="#11FF37"/>
<path d="M211 1C211 0.447716 211.448 0 212 0V0C212.552 0 213 0.447715 213 1V30H211V1Z" fill="#11FF37"/>
<rect x="203" y="30" width="18" height="42" rx="5" fill="#11FF37"/>
<path d="M213 101C213 101.552 212.552 102 212 102V102C211.448 102 211 101.552 211 101L211 72L213 72L213 101Z" fill="#11FF37"/>
<path d="M269 14C269 13.4477 269.448 13 270 13V13C270.552 13 271 13.4477 271 14V43H269V14Z" fill="#11FF37"/>
<rect x="261" y="43" width="18" height="50" rx="5" fill="#11FF37"/>
<path d="M271 122C271 122.552 270.552 123 270 123V123C269.448 123 269 122.552 269 122L269 93L271 93L271 122Z" fill="#11FF37"/>
<path d="M501 69C501 68.4477 501.448 68 502 68V68C502.552 68 503 68.4477 503 69V98H501V69Z" fill="#11FF37"/>
<rect x="493" y="98" width="18" height="40" rx="5" fill="#11FF37"/>
<path d="M503 167C503 167.552 502.552 168 502 168V168C501.448 168 501 167.552 501 167L501 138L503 138L503 167Z" fill="#11FF37"/>
<path d="M385 16C385 15.4477 385.448 15 386 15V15C386.552 15 387 15.4477 387 16V45H385V16Z" fill="#11FF37"/>
<rect x="377" y="45" width="18" height="43" rx="5" fill="#11FF37"/>
<path d="M387 117C387 117.552 386.552 118 386 118V118C385.448 118 385 117.552 385 117L385 88L387 88L387 117Z" fill="#11FF37"/>
<path d="M559 12C559 11.4477 559.448 11 560 11V11C560.552 11 561 11.4477 561 12V41H559V12Z" fill="#11FF37"/>
<rect x="551" y="41" width="18" height="71" rx="5" fill="#11FF37"/>
<path d="M561 141C561 141.552 560.552 142 560 142V142C559.448 142 559 141.552 559 141L559 112L561 112L561 141Z" fill="#11FF37"/>
<path d="M443 34C443 33.4477 443.448 33 444 33V33C444.552 33 445 33.4477 445 34V63H443V34Z" fill="#11FF37"/>
<rect x="435" y="63" width="18" height="71" rx="5" fill="#11FF37"/>
<path d="M445 163C445 163.552 444.552 164 444 164V164C443.448 164 443 163.552 443 163L443 134L445 134L445 163Z" fill="#11FF37"/>
<path d="M240 36C240 35.4477 240.448 35 241 35V35C241.552 35 242 35.4477 242 36V65H240V36Z" fill="#11FF37"/>
<rect x="232" y="65" width="18" height="71" rx="5" fill="#11FF37"/>
<path d="M242 165C242 165.552 241.552 166 241 166V166C240.448 166 240 165.552 240 165L240 136L242 136L242 165Z" fill="#11FF37"/>
<path d="M327 33C327 32.4477 327.448 32 328 32V32C328.552 32 329 32.4477 329 33V62H327V33Z" fill="#17181E"/>
<rect x="319" y="62" width="18" height="66" rx="5" fill="#17181E"/>
<path d="M329 157C329 157.552 328.552 158 328 158V158C327.448 158 327 157.552 327 157L327 128L329 128L329 157Z" fill="#17181E"/>
<path d="M37 26C37 25.4477 37.4477 25 38 25V25C38.5523 25 39 25.4477 39 26V55H37V26Z" fill="#17181E"/>
<rect x="29" y="55" width="18" height="66" rx="5" fill="#17181E"/>
<path d="M39 150C39 150.552 38.5523 151 38 151V151C37.4477 151 37 150.552 37 150L37 121L39 121L39 150Z" fill="#17181E"/>
<path d="M153 8C153 7.44772 153.448 7 154 7V7C154.552 7 155 7.44772 155 8V37H153V8Z" fill="#17181E"/>
<rect x="145" y="37" width="18" height="66" rx="5" fill="#17181E"/>
<path d="M155 132C155 132.552 154.552 133 154 133V133C153.448 133 153 132.552 153 132L153 103L155 103L155 132Z" fill="#17181E"/>
<path d="M182 44C182 43.4477 182.448 43 183 43V43C183.552 43 184 43.4477 184 44V73H182V44Z" fill="#17181E"/>
<rect x="174" y="73" width="18" height="49" rx="5" fill="#17181E"/>
<path d="M184 151C184 151.552 183.552 152 183 152V152C182.448 152 182 151.552 182 151L182 122L184 122L184 151Z" fill="#17181E"/>
<path d="M356 3C356 2.44772 356.448 2 357 2V2C357.552 2 358 2.44772 358 3V32H356V3Z" fill="#17181E"/>
<rect x="348" y="32" width="18" height="66" rx="5" fill="#17181E"/>
<path d="M358 127C358 127.552 357.552 128 357 128V128C356.448 128 356 127.552 356 127L356 98L358 98L358 127Z" fill="#17181E"/>
<path d="M414 45C414 44.4477 414.448 44 415 44V44C415.552 44 416 44.4477 416 45V74H414V45Z" fill="#17181E"/>
<rect x="406" y="74" width="18" height="66" rx="5" fill="#17181E"/>
<path d="M416 169C416 169.552 415.552 170 415 170V170C414.448 170 414 169.552 414 169L414 140L416 140L416 169Z" fill="#17181E"/>
<path d="M530 19C530 18.4477 530.448 18 531 18V18C531.552 18 532 18.4477 532 19V48H530V19Z" fill="#17181E"/>
<rect x="522" y="48" width="18" height="66" rx="5" fill="#17181E"/>
<path d="M532 143C532 143.552 531.552 144 531 144V144C530.448 144 530 143.552 530 143L530 114L532 114L532 143Z" fill="#17181E"/>
</svg>
