<svg width="27" height="27" viewBox="0 0 27 27" fill="none" xmlns="http://www.w3.org/2000/svg">
<g clip-path="url(#clip0_1779_1755)">
<path d="M13.5 27C6.04378 27 0 20.9562 0 13.5C0 6.04378 6.04378 0 13.5 0C20.9562 0 27 6.04378 27 13.5C27 20.9562 20.9562 27 13.5 27ZM10.2229 12.1534L13.5 8.87625L16.7788 12.1551L18.6857 10.2482L13.5 5.0625L8.316 10.2465L10.2229 12.1534ZM5.0625 13.5L6.96938 15.4069L8.87625 13.5L6.96938 11.5931L5.0625 13.5ZM10.2229 14.8466L8.31347 16.751L8.316 16.7535L13.5 21.9375L18.6857 16.7518L16.7788 14.8441L13.5 18.1237L10.2229 14.8466ZM18.1237 13.5L20.0306 15.4069L21.9375 13.5L20.0306 11.5931L18.1237 13.5ZM15.4339 13.4983L13.5 11.5644L12.0698 12.9937L11.9053 13.1583L11.567 13.4975L11.5636 13.5L11.567 13.5025L13.4992 15.4356L15.4347 13.5008L15.4356 13.5L15.4339 13.4983Z" fill="black"/>
</g>
<defs>
<clipPath id="clip0_1779_1755">
<rect width="27" height="27" fill="white"/>
</clipPath>
</defs>
</svg>
