<svg width="28" height="28" viewBox="0 0 28 28" fill="none" xmlns="http://www.w3.org/2000/svg">
<g clip-path="url(#clip0_2151_5007)">
<path d="M27.5812 17.3856C25.7107 24.8896 18.1079 29.4512 10.6146 27.5805C3.11039 25.71 -1.4512 18.1076 0.419438 10.6144C2.28997 3.11039 9.88169 -1.4512 17.3859 0.419439C24.8792 2.27903 29.4518 9.88147 27.5812 17.3856Z" fill="url(#paint0_linear_2151_5007)"/>
<path d="M20.6659 12.2556C20.9393 10.3962 19.5284 9.38994 17.5815 8.72275L18.2159 6.19619L16.6846 5.81338L16.0721 8.27432C15.6674 8.17588 15.2518 8.07744 14.8362 7.98994L15.4487 5.51807L13.9174 5.13525L13.294 7.65088C12.9549 7.57432 12.6268 7.49775 12.3096 7.42119V7.41025L10.1877 6.88525L9.78304 8.52588C9.78304 8.52588 10.9205 8.78838 10.8987 8.79932C11.5221 8.95244 11.6315 9.36807 11.6096 9.69619L10.8877 12.5728C10.9315 12.5837 10.9862 12.5946 11.0518 12.6274C10.9971 12.6165 10.9424 12.6056 10.8877 12.5837L9.88148 16.6087C9.80492 16.7946 9.60804 17.079 9.18148 16.9696C9.19242 16.9915 8.06586 16.6962 8.06586 16.6962L7.30023 18.4571L9.30179 18.9603C9.67367 19.0587 10.0346 19.1462 10.3955 19.2446L9.76117 21.7931L11.2924 22.1759L11.9268 19.6493C12.3424 19.7587 12.758 19.8681 13.1518 19.9665L12.5284 22.4821L14.0596 22.8649L14.694 20.3165C17.319 20.8087 19.2877 20.6118 20.108 18.2384C20.7752 16.3353 20.0752 15.2306 18.6971 14.5087C19.7143 14.279 20.469 13.6118 20.6659 12.2556ZM17.1549 17.1774C16.6846 19.0806 13.469 18.0524 12.4299 17.7899L13.2721 14.4103C14.3112 14.6728 17.658 15.1868 17.1549 17.1774ZM17.6362 12.2228C17.1987 13.9618 14.5299 13.0759 13.6659 12.8571L14.4315 9.79463C15.2955 10.0134 18.0846 10.4181 17.6362 12.2228Z" fill="white"/>
</g>
<defs>
<linearGradient id="paint0_linear_2151_5007" x1="1399.24" y1="-0.671999" x2="1399.24" y2="2799.72" gradientUnits="userSpaceOnUse">
<stop stop-color="#F9AA4B"/>
<stop offset="1" stop-color="#F7931A"/>
</linearGradient>
<clipPath id="clip0_2151_5007">
<rect width="28" height="28" fill="white"/>
</clipPath>
</defs>
</svg>
