<svg width="28" height="28" viewBox="0 0 28 28" fill="none" xmlns="http://www.w3.org/2000/svg">
<g clip-path="url(#clip0_2151_5024)">
<path d="M14 28C21.732 28 28 21.732 28 14C28 6.26801 21.732 0 14 0C6.26801 0 0 6.26801 0 14C0 21.732 6.26801 28 14 28Z" fill="#26A17B"/>
<path fill-rule="evenodd" clip-rule="evenodd" d="M15.6818 15.2101V15.2083C15.5855 15.2153 15.0894 15.2451 13.9825 15.2451C13.0988 15.2451 12.4766 15.2188 12.2579 15.2083V15.2109C8.85589 15.0613 6.31664 14.4689 6.31664 13.7602C6.31664 13.0523 8.85589 12.4599 12.2579 12.3077V14.6212C12.4801 14.6369 13.1171 14.6746 13.9974 14.6746C15.0535 14.6746 15.5829 14.6308 15.6818 14.6221V12.3094C19.0768 12.4608 21.6099 13.0532 21.6099 13.7602C21.6099 14.4689 19.0768 15.0596 15.6818 15.2101ZM15.6818 12.0688V9.99855H20.419V6.84155H7.52064V9.99855H12.2579V12.0679C8.40789 12.2447 5.51251 13.0077 5.51251 13.9212C5.51251 14.8347 8.40789 15.5968 12.2579 15.7744V22.4087H15.6818V15.7727C19.5256 15.5959 22.414 14.8338 22.414 13.9212C22.414 13.0086 19.5256 12.2464 15.6818 12.0688Z" fill="white"/>
</g>
<defs>
<clipPath id="clip0_2151_5024">
<rect width="28" height="28" fill="white"/>
</clipPath>
</defs>
</svg>
